<mxfile host="65bd71144e">
    <diagram name="Overview" id="c7558073-3199-34d8-9f00-42111426c3f3">
        <mxGraphModel dx="1057" dy="768" grid="1" gridSize="10" guides="1" tooltips="1" connect="1" arrows="1" fold="1" page="1" pageScale="1" pageWidth="1169" pageHeight="827" background="#ffffff" math="0" shadow="0">
            <root>
                <mxCell id="0"/>
                <mxCell id="1" parent="0"/>
                <mxCell id="5" value="api-server" style="shape=process;whiteSpace=wrap;align=center;verticalAlign=middle;size=0;fontStyle=0;strokeWidth=3;fillColor=#d5e8d4;strokeColor=#82b366;fontColor=#0A0A0A;fontSize=14;" parent="1" vertex="1">
                    <mxGeometry x="440" y="391" width="160" height="50" as="geometry"/>
                </mxCell>
                <mxCell id="13" value="Bluechi-controller" style="whiteSpace=wrap;align=center;verticalAlign=middle;fontStyle=0;strokeWidth=3;fillColor=#fff2cc;strokeColor=#d6b656;fontColor=#000000;fontSize=14;" parent="1" vertex="1">
                    <mxGeometry x="680" y="530" width="110" height="60" as="geometry"/>
                </mxCell>
                <mxCell id="56" value="" style="edgeStyle=elbowEdgeStyle;elbow=horizontal;strokeColor=#990000;strokeWidth=2;fontColor=#2c1111;exitX=1;exitY=0.5;exitDx=0;exitDy=0;fontStyle=0" parent="1" source="107" target="5" edge="1">
                    <mxGeometry width="100" height="100" relative="1" as="geometry">
                        <mxPoint x="320" y="315" as="sourcePoint"/>
                        <mxPoint x="430" y="390" as="targetPoint"/>
                        <Array as="points">
                            <mxPoint x="470" y="350"/>
                        </Array>
                    </mxGeometry>
                </mxCell>
                <mxCell id="83" value="" style="edgeStyle=elbowEdgeStyle;elbow=horizontal;strokeColor=#990000;strokeWidth=2;fontColor=#2c1111;exitX=1;exitY=0.5;exitDx=0;exitDy=0;endArrow=block;endFill=0;fontStyle=0" parent="1" target="13" edge="1">
                    <mxGeometry width="100" height="100" relative="1" as="geometry">
                        <mxPoint x="600" y="560" as="sourcePoint"/>
                        <mxPoint x="577" y="650" as="targetPoint"/>
                    </mxGeometry>
                </mxCell>
                <mxCell id="84" value="write" style="text;spacingTop=-5;align=center;fontColor=#2c1111;fontStyle=0" parent="1" vertex="1">
                    <mxGeometry x="390.0000000000002" y="434.0000000000002" width="30" height="20" as="geometry"/>
                </mxCell>
                <mxCell id="92" value="" style="edgeStyle=elbowEdgeStyle;elbow=horizontal;strokeColor=#990000;strokeWidth=2;entryX=1;entryY=0.5;entryDx=0;entryDy=0;exitX=0;exitY=0.5;exitDx=0;exitDy=0;fontColor=#2c1111;fontStyle=0" parent="1" source="5" target="106" edge="1">
                    <mxGeometry width="100" height="100" relative="1" as="geometry">
                        <mxPoint x="403" y="416" as="sourcePoint"/>
                        <mxPoint x="320" y="416" as="targetPoint"/>
                        <Array as="points">
                            <mxPoint x="373" y="416"/>
                            <mxPoint x="460" y="470"/>
                        </Array>
                    </mxGeometry>
                </mxCell>
                <mxCell id="93" value="" style="elbow=horizontal;strokeColor=#990000;strokeWidth=2;entryX=0;entryY=0;entryDx=0;entryDy=15;entryPerimeter=0;startArrow=none;startFill=0;fontColor=#2c1111;endArrow=none;endFill=0;exitX=0.75;exitY=1;exitDx=0;exitDy=0;edgeStyle=orthogonalEdgeStyle;fontStyle=0" parent="1" target="96" edge="1">
                    <mxGeometry width="100" height="100" relative="1" as="geometry">
                        <mxPoint x="290" y="441" as="sourcePoint"/>
                        <mxPoint x="392.664" y="492.20000000000005" as="targetPoint"/>
                    </mxGeometry>
                </mxCell>
                <mxCell id="vXQ5WWabHy_hSCokeJlB-106" value="" style="endArrow=none;html=1;rounded=1;entryX=0;entryY=0.5;entryDx=0;entryDy=0;strokeColor=#990000;strokeWidth=2;fontColor=#2c1111;dashed=1;endFill=0;startArrow=classic;startFill=1;fontStyle=0" parent="1" edge="1">
                    <mxGeometry width="50" height="50" relative="1" as="geometry">
                        <mxPoint x="130" y="416" as="sourcePoint"/>
                        <mxPoint x="200" y="416" as="targetPoint"/>
                    </mxGeometry>
                </mxCell>
                <mxCell id="vXQ5WWabHy_hSCokeJlB-107" value="" style="endArrow=none;html=1;rounded=1;exitX=0.124;exitY=0.988;exitDx=0;exitDy=0;entryX=0.5;entryY=0;entryDx=0;entryDy=0;entryPerimeter=0;strokeColor=#990000;strokeWidth=2;exitPerimeter=0;fontColor=#2c1111;endFill=0;edgeStyle=orthogonalEdgeStyle;fontStyle=0" parent="1" source="5" target="96" edge="1">
                    <mxGeometry width="50" height="50" relative="1" as="geometry">
                        <mxPoint x="413" y="481" as="sourcePoint"/>
                        <mxPoint x="442.1700000000001" y="467.79999999999995" as="targetPoint"/>
                    </mxGeometry>
                </mxCell>
                <mxCell id="vXQ5WWabHy_hSCokeJlB-111" value="" style="edgeStyle=elbowEdgeStyle;elbow=horizontal;strokeColor=#990000;strokeWidth=2;entryX=0;entryY=0.75;entryDx=0;entryDy=0;startArrow=none;startFill=0;fontColor=#2c1111;fontStyle=0" parent="1" edge="1">
                    <mxGeometry width="100" height="100" relative="1" as="geometry">
                        <mxPoint x="250" y="441" as="sourcePoint"/>
                        <mxPoint x="440" y="572.5" as="targetPoint"/>
                        <Array as="points">
                            <mxPoint x="250" y="530"/>
                            <mxPoint x="250" y="510"/>
                            <mxPoint x="652" y="550"/>
                        </Array>
                    </mxGeometry>
                </mxCell>
                <mxCell id="vXQ5WWabHy_hSCokeJlB-116" value="" style="elbow=horizontal;strokeColor=#990000;strokeWidth=2;startArrow=none;startFill=0;exitX=0;exitY=0.25;exitDx=0;exitDy=0;fontColor=#2c1111;entryX=0.578;entryY=0.98;entryDx=0;entryDy=0;entryPerimeter=0;endArrow=none;endFill=0;edgeStyle=orthogonalEdgeStyle;fontStyle=0" parent="1" target="96" edge="1">
                    <mxGeometry width="100" height="100" relative="1" as="geometry">
                        <mxPoint x="440" y="547.5" as="sourcePoint"/>
                        <mxPoint x="360" y="540" as="targetPoint"/>
                    </mxGeometry>
                </mxCell>
                <mxCell id="vXQ5WWabHy_hSCokeJlB-120" value="&lt;p style=&quot;margin: 4px 0px 0px; text-align: center;&quot;&gt;&lt;strong style=&quot;&quot;&gt;test-grpc-sender&lt;br&gt;&lt;/strong&gt;&lt;/p&gt;&lt;hr style=&quot;font-size: 11px;&quot;&gt;&lt;p style=&quot;margin: 0px 0px 0px 8px; font-size: 11px;&quot;&gt;&lt;font style=&quot;font-size: 11px;&quot;&gt;used as&lt;br&gt;a replacement&lt;/font&gt;&lt;/p&gt;&lt;p style=&quot;margin: 0px 0px 0px 8px; font-size: 11px;&quot;&gt;&lt;font style=&quot;font-size: 11px;&quot;&gt;for &lt;br&gt;symphony agent&lt;/font&gt;&lt;/p&gt;" style="verticalAlign=middle;align=center;overflow=fill;fontSize=12;fontFamily=Helvetica;html=1;rounded=1;fontStyle=0;strokeWidth=3;fillColor=#eeeeee;strokeColor=#999999;fontColor=#3f3636;" parent="1" vertex="1">
                    <mxGeometry x="20" y="270" width="110" height="90" as="geometry"/>
                </mxCell>
                <mxCell id="vXQ5WWabHy_hSCokeJlB-121" value="" style="edgeStyle=none;noEdgeStyle=1;strokeColor=#990000;strokeWidth=2;exitX=1;exitY=0.5;exitDx=0;exitDy=0;entryX=0;entryY=0.5;entryDx=0;entryDy=0;fontColor=#2c1111;fontStyle=0" parent="1" source="vXQ5WWabHy_hSCokeJlB-120" edge="1">
                    <mxGeometry width="100" height="100" relative="1" as="geometry">
                        <mxPoint x="364" y="164.6" as="sourcePoint"/>
                        <mxPoint x="200" y="315" as="targetPoint"/>
                        <Array as="points"/>
                    </mxGeometry>
                </mxCell>
                <mxCell id="vXQ5WWabHy_hSCokeJlB-122" value="&lt;p style=&quot;margin: 4px 0px 0px; text-align: center;&quot;&gt;&lt;strong style=&quot;&quot;&gt;piccoloctl&lt;br&gt;&lt;/strong&gt;&lt;/p&gt;&lt;hr&gt;&lt;p style=&quot;margin: 0px 0px 0px 8px; font-size: 11px;&quot;&gt;&lt;font style=&quot;font-size: 11px;&quot;&gt;for testing&lt;/font&gt;&lt;/p&gt;&lt;p style=&quot;margin: 0px 0px 0px 8px; font-size: 11px;&quot;&gt;&lt;font style=&quot;font-size: 11px;&quot;&gt;bluechi&lt;/font&gt;&lt;/p&gt;&lt;p style=&quot;margin: 0px 0px 0px 8px; font-size: 11px;&quot;&gt;&lt;font style=&quot;font-size: 11px;&quot;&gt;command&lt;/font&gt;&lt;/p&gt;&lt;p style=&quot;margin: 0px 0px 0px 8px; font-size: 11px;&quot;&gt;&lt;font style=&quot;font-size: 11px;&quot;&gt;directly&lt;/font&gt;&lt;/p&gt;" style="verticalAlign=middle;align=center;overflow=fill;fontSize=12;fontFamily=Helvetica;html=1;rounded=1;fontStyle=0;strokeWidth=3;fillColor=#eeeeee;strokeColor=#999999;fontColor=#3f3636;" parent="1" vertex="1">
                    <mxGeometry x="350" y="180" width="110" height="90" as="geometry"/>
                </mxCell>
                <mxCell id="vXQ5WWabHy_hSCokeJlB-123" value="&lt;p style=&quot;margin: 4px 0px 0px; text-align: center;&quot;&gt;&lt;strong style=&quot;&quot;&gt;piccoloyaml&lt;br&gt;&lt;/strong&gt;&lt;/p&gt;&lt;hr&gt;&lt;p style=&quot;margin: 0px 0px 0px 8px; font-size: 11px;&quot;&gt;&lt;font style=&quot;font-size: 11px;&quot;&gt;for testing&lt;/font&gt;&lt;/p&gt;&lt;p style=&quot;margin: 0px 0px 0px 8px; font-size: 11px;&quot;&gt;&lt;font style=&quot;font-size: 11px;&quot;&gt;systemd&lt;/font&gt;&lt;/p&gt;&lt;p style=&quot;margin: 0px 0px 0px 8px; font-size: 11px;&quot;&gt;&lt;font style=&quot;font-size: 11px;&quot;&gt;workload&lt;/font&gt;&lt;/p&gt;&lt;p style=&quot;margin: 0px 0px 0px 8px; font-size: 11px;&quot;&gt;&lt;font style=&quot;font-size: 11px;&quot;&gt;creation&lt;/font&gt;&lt;/p&gt;" style="verticalAlign=middle;align=center;overflow=fill;fontSize=12;fontFamily=Helvetica;html=1;rounded=1;fontStyle=0;strokeWidth=3;fillColor=#eeeeee;strokeColor=#999999;fontColor=#3f3636;" parent="1" vertex="1">
                    <mxGeometry x="509" y="180" width="120" height="90" as="geometry"/>
                </mxCell>
                <mxCell id="vXQ5WWabHy_hSCokeJlB-127" value="" style="endArrow=classic;html=1;rounded=1;exitX=1;exitY=0.5;exitDx=0;exitDy=0;strokeColor=#990000;strokeWidth=2;fontColor=#2c1111;entryX=0.33;entryY=0.02;entryDx=0;entryDy=0;entryPerimeter=0;fontStyle=0" parent="1" source="vXQ5WWabHy_hSCokeJlB-122" target="5" edge="1">
                    <mxGeometry width="50" height="50" relative="1" as="geometry">
                        <mxPoint x="632" y="320" as="sourcePoint"/>
                        <mxPoint x="470" y="390" as="targetPoint"/>
                        <Array as="points">
                            <mxPoint x="493" y="225"/>
                        </Array>
                    </mxGeometry>
                </mxCell>
                <mxCell id="vXQ5WWabHy_hSCokeJlB-128" value="" style="endArrow=classic;html=1;rounded=1;exitX=0.5;exitY=1;exitDx=0;exitDy=0;strokeColor=#990000;strokeWidth=2;fontColor=#2c1111;entryX=0.75;entryY=0;entryDx=0;entryDy=0;fontStyle=0" parent="1" source="vXQ5WWabHy_hSCokeJlB-123" edge="1">
                    <mxGeometry width="50" height="50" relative="1" as="geometry">
                        <mxPoint x="729" y="219" as="sourcePoint"/>
                        <mxPoint x="569" y="391" as="targetPoint"/>
                    </mxGeometry>
                </mxCell>
                <mxCell id="96" value="&lt;font color=&quot;#1a1919&quot; style=&quot;font-size: 14px;&quot;&gt;ETCD&lt;/font&gt;" style="shape=cylinder3;whiteSpace=wrap;html=1;boundedLbl=1;backgroundOutline=1;size=10;fillColor=#b0e3e6;strokeColor=#0e8088;fontStyle=0;fontSize=14;" parent="1" vertex="1">
                    <mxGeometry x="340" y="470" width="90" height="50" as="geometry"/>
                </mxCell>
                <mxCell id="99" value="&lt;p style=&quot;margin: 4px 0px 0px; text-align: center;&quot;&gt;&lt;strong style=&quot;&quot;&gt;test-DDS-sender&lt;br&gt;&lt;/strong&gt;&lt;/p&gt;&lt;hr style=&quot;font-size: 11px;&quot;&gt;&lt;p style=&quot;margin: 0px 0px 0px 8px; font-size: 11px;&quot;&gt;&lt;font style=&quot;font-size: 11px;&quot;&gt;used as&lt;br&gt;a replacement&lt;/font&gt;&lt;/p&gt;&lt;p style=&quot;margin: 0px 0px 0px 8px; font-size: 11px;&quot;&gt;&lt;font style=&quot;font-size: 11px;&quot;&gt;for &lt;br&gt;vehicle sensors&lt;/font&gt;&lt;/p&gt;" style="verticalAlign=middle;align=center;overflow=fill;fontSize=12;fontFamily=Helvetica;html=1;rounded=1;fontStyle=0;strokeWidth=3;fillColor=#eeeeee;strokeColor=#999999;fontColor=#3f3636;" parent="1" vertex="1">
                    <mxGeometry x="20" y="371" width="110" height="90" as="geometry"/>
                </mxCell>
                <mxCell id="104" value="" style="endArrow=classic;html=1;rounded=1;strokeColor=#990000;strokeWidth=2;fontColor=#2c1111;exitX=0.5;exitY=1;exitDx=0;exitDy=0;entryX=0.5;entryY=0;entryDx=0;entryDy=0;fontStyle=0" parent="1" source="5" target="105" edge="1">
                    <mxGeometry width="50" height="50" relative="1" as="geometry">
                        <mxPoint x="580" y="450" as="sourcePoint"/>
                        <mxPoint x="530" y="530" as="targetPoint"/>
                    </mxGeometry>
                </mxCell>
                <mxCell id="105" value="statemanager" style="shape=process;whiteSpace=wrap;align=center;verticalAlign=middle;size=0;fontStyle=0;strokeWidth=3;fillColor=#d5e8d4;strokeColor=#82b366;fontColor=#0A0A0A;fontSize=14;" parent="1" vertex="1">
                    <mxGeometry x="440" y="530" width="160" height="60" as="geometry"/>
                </mxCell>
                <mxCell id="106" value="gateway" style="shape=process;whiteSpace=wrap;align=center;verticalAlign=middle;size=0;fontStyle=0;strokeWidth=3;fillColor=#d5e8d4;strokeColor=#82b366;fontColor=#0A0A0A;fontSize=14;" parent="1" vertex="1">
                    <mxGeometry x="200" y="391" width="160" height="50" as="geometry"/>
                </mxCell>
                <mxCell id="107" value="yamlparser" style="shape=process;whiteSpace=wrap;align=center;verticalAlign=middle;size=0;fontStyle=0;strokeWidth=3;fillColor=#d5e8d4;strokeColor=#82b366;fontColor=#0A0A0A;fontSize=14;" parent="1" vertex="1">
                    <mxGeometry x="200" y="290" width="160" height="50" as="geometry"/>
                </mxCell>
                <mxCell id="109" value="read" style="text;spacingTop=-5;align=center;fontColor=#2c1111;fontStyle=0" parent="1" vertex="1">
                    <mxGeometry x="280.0000000000002" y="450.0000000000002" width="30" height="20" as="geometry"/>
                </mxCell>
                <mxCell id="110" value="read" style="text;spacingTop=-5;align=center;fontColor=#2c1111;fontStyle=0" parent="1" vertex="1">
                    <mxGeometry x="400.0000000000002" y="530.0000000000002" width="30" height="20" as="geometry"/>
                </mxCell>
                <mxCell id="111" value="" style="edgeStyle=elbowEdgeStyle;elbow=horizontal;strokeColor=#990000;strokeWidth=2;entryX=1;entryY=0.5;entryDx=0;entryDy=0;fontColor=#2c1111;fontStyle=0" parent="1" edge="1">
                    <mxGeometry width="100" height="100" relative="1" as="geometry">
                        <mxPoint x="741" y="215" as="sourcePoint"/>
                        <mxPoint x="701" y="215" as="targetPoint"/>
                        <Array as="points">
                            <mxPoint x="714" y="215"/>
                            <mxPoint x="801" y="269"/>
                        </Array>
                    </mxGeometry>
                </mxCell>
                <mxCell id="112" value="storage connection" style="text;html=1;strokeColor=none;fillColor=none;align=center;verticalAlign=middle;whiteSpace=wrap;rounded=0;fontColor=#1a1919;fontStyle=0" parent="1" vertex="1">
                    <mxGeometry x="727.5" y="255" width="150" height="30" as="geometry"/>
                </mxCell>
                <mxCell id="113" value="grpc call" style="text;html=1;strokeColor=none;fillColor=none;align=left;verticalAlign=middle;whiteSpace=wrap;rounded=0;fontColor=#1a1919;fontStyle=0" parent="1" vertex="1">
                    <mxGeometry x="750" y="200" width="60" height="30" as="geometry"/>
                </mxCell>
                <mxCell id="114" value="" style="edgeStyle=elbowEdgeStyle;elbow=horizontal;strokeColor=#990000;strokeWidth=2;entryX=1;entryY=0.5;entryDx=0;entryDy=0;fontColor=#2c1111;endArrow=none;endFill=0;fontStyle=0" parent="1" edge="1">
                    <mxGeometry width="100" height="100" relative="1" as="geometry">
                        <mxPoint x="741" y="269" as="sourcePoint"/>
                        <mxPoint x="701" y="269" as="targetPoint"/>
                        <Array as="points">
                            <mxPoint x="714" y="269"/>
                            <mxPoint x="801" y="323"/>
                        </Array>
                    </mxGeometry>
                </mxCell>
                <mxCell id="115" value="" style="edgeStyle=elbowEdgeStyle;elbow=horizontal;strokeColor=#990000;strokeWidth=2;entryX=1;entryY=0.5;entryDx=0;entryDy=0;fontColor=#2c1111;endArrow=block;endFill=0;fontStyle=0" parent="1" edge="1">
                    <mxGeometry width="100" height="100" relative="1" as="geometry">
                        <mxPoint x="740" y="235" as="sourcePoint"/>
                        <mxPoint x="700" y="235" as="targetPoint"/>
                        <Array as="points">
                            <mxPoint x="713" y="235"/>
                            <mxPoint x="800" y="289"/>
                        </Array>
                    </mxGeometry>
                </mxCell>
                <mxCell id="116" value="dbus call" style="text;html=1;strokeColor=none;fillColor=none;align=left;verticalAlign=middle;whiteSpace=wrap;rounded=0;fontColor=#1a1919;fontStyle=0" parent="1" vertex="1">
                    <mxGeometry x="750" y="220" width="60" height="30" as="geometry"/>
                </mxCell>
                <mxCell id="117" value="" style="edgeStyle=elbowEdgeStyle;elbow=horizontal;strokeColor=#990000;strokeWidth=2;entryX=1;entryY=0.5;entryDx=0;entryDy=0;fontColor=#2c1111;endArrow=classic;endFill=1;dashed=1;fontStyle=0" parent="1" edge="1">
                    <mxGeometry width="100" height="100" relative="1" as="geometry">
                        <mxPoint x="740" y="255" as="sourcePoint"/>
                        <mxPoint x="700" y="255" as="targetPoint"/>
                        <Array as="points">
                            <mxPoint x="713" y="255"/>
                            <mxPoint x="800" y="309"/>
                        </Array>
                    </mxGeometry>
                </mxCell>
                <mxCell id="118" value="subscribe (pubsub)" style="text;html=1;strokeColor=none;fillColor=none;align=left;verticalAlign=middle;whiteSpace=wrap;rounded=0;fontColor=#1a1919;fontStyle=0" parent="1" vertex="1">
                    <mxGeometry x="750" y="240" width="120" height="30" as="geometry"/>
                </mxCell>
                <mxCell id="122" value="" style="shape=process;whiteSpace=wrap;align=center;verticalAlign=middle;size=0;fontStyle=0;strokeWidth=3;fillColor=#d5e8d4;strokeColor=#82b366;fontColor=#0A0A0A;" parent="1" vertex="1">
                    <mxGeometry x="700" y="285" width="40" height="20" as="geometry"/>
                </mxCell>
                <mxCell id="123" value="" style="whiteSpace=wrap;align=center;verticalAlign=middle;fontStyle=0;strokeWidth=3;fillColor=#fff2cc;strokeColor=#d6b656;fontColor=#000000;" parent="1" vertex="1">
                    <mxGeometry x="700" y="315" width="40" height="20" as="geometry"/>
                </mxCell>
                <mxCell id="124" value="&lt;p style=&quot;margin: 4px 0px 0px; text-align: center;&quot;&gt;&lt;/p&gt;&lt;p style=&quot;margin: 0px 0px 0px 8px; font-size: 11px;&quot;&gt;&lt;br&gt;&lt;/p&gt;" style="verticalAlign=middle;align=center;overflow=fill;fontSize=12;fontFamily=Helvetica;html=1;rounded=1;fontStyle=0;strokeWidth=3;fillColor=#eeeeee;strokeColor=#999999;fontColor=#3f3636;" parent="1" vertex="1">
                    <mxGeometry x="700" y="345" width="40" height="20" as="geometry"/>
                </mxCell>
                <mxCell id="125" value="piccolo service" style="text;html=1;strokeColor=none;fillColor=none;align=left;verticalAlign=middle;whiteSpace=wrap;rounded=0;fontColor=#1a1919;fontStyle=0" parent="1" vertex="1">
                    <mxGeometry x="750" y="280" width="95" height="30" as="geometry"/>
                </mxCell>
                <mxCell id="126" value="external service" style="text;html=1;strokeColor=none;fillColor=none;align=left;verticalAlign=middle;whiteSpace=wrap;rounded=0;fontColor=#1a1919;fontStyle=0" parent="1" vertex="1">
                    <mxGeometry x="750" y="310" width="105" height="25" as="geometry"/>
                </mxCell>
                <mxCell id="127" value="test service" style="text;html=1;strokeColor=none;fillColor=none;align=left;verticalAlign=middle;whiteSpace=wrap;rounded=0;fontColor=#1a1919;fontStyle=0" parent="1" vertex="1">
                    <mxGeometry x="750" y="342.5" width="85" height="25" as="geometry"/>
                </mxCell>
                <mxCell id="128" value="" style="shape=cylinder3;whiteSpace=wrap;html=1;boundedLbl=1;backgroundOutline=1;size=3;fillColor=#b0e3e6;strokeColor=#0e8088;fontStyle=0" parent="1" vertex="1">
                    <mxGeometry x="700" y="375.5" width="40" height="19" as="geometry"/>
                </mxCell>
                <mxCell id="129" value="storage" style="text;html=1;strokeColor=none;fillColor=none;align=left;verticalAlign=middle;whiteSpace=wrap;rounded=0;fontColor=#1a1919;fontStyle=0" parent="1" vertex="1">
                    <mxGeometry x="750" y="372.5" width="85" height="25" as="geometry"/>
                </mxCell>
            </root>
        </mxGraphModel>
    </diagram>
    <diagram id="5KsmUVCc5pC1grOPwvEX" name="Sequence - Launch">
        <mxGraphModel dx="1057" dy="768" grid="1" gridSize="10" guides="1" tooltips="1" connect="1" arrows="1" fold="1" page="1" pageScale="1" pageWidth="1169" pageHeight="827" math="0" shadow="0">
            <root>
                <mxCell id="0"/>
                <mxCell id="1" parent="0"/>
                <mxCell id="efERmn20gOlT6z2LHzhT-42" value="get action" style="html=1;verticalAlign=bottom;endArrow=open;dashed=1;endSize=8;" parent="1" edge="1">
                    <mxGeometry x="-0.4266" relative="1" as="geometry">
                        <mxPoint x="848.7" y="399.99999999999994" as="sourcePoint"/>
                        <mxPoint x="539.3" y="399.99999999999994" as="targetPoint"/>
                        <mxPoint as="offset"/>
                    </mxGeometry>
                </mxCell>
                <mxCell id="efERmn20gOlT6z2LHzhT-2" value="yamlparser" style="shape=umlLifeline;perimeter=lifelinePerimeter;whiteSpace=wrap;html=1;container=1;collapsible=0;recursiveResize=0;outlineConnect=0;" parent="1" vertex="1">
                    <mxGeometry x="160" y="80" width="100" height="480" as="geometry"/>
                </mxCell>
                <mxCell id="efERmn20gOlT6z2LHzhT-13" value="" style="html=1;points=[];perimeter=orthogonalPerimeter;" parent="efERmn20gOlT6z2LHzhT-2" vertex="1">
                    <mxGeometry x="45" y="60" width="10" height="320" as="geometry"/>
                </mxCell>
                <mxCell id="efERmn20gOlT6z2LHzhT-16" value="" style="html=1;points=[];perimeter=orthogonalPerimeter;" parent="efERmn20gOlT6z2LHzhT-2" vertex="1">
                    <mxGeometry x="50" y="100" width="10" height="40" as="geometry"/>
                </mxCell>
                <mxCell id="efERmn20gOlT6z2LHzhT-17" value="parsing" style="edgeStyle=orthogonalEdgeStyle;html=1;align=left;spacingLeft=2;endArrow=block;rounded=0;entryX=1;entryY=0;" parent="efERmn20gOlT6z2LHzhT-2" target="efERmn20gOlT6z2LHzhT-16" edge="1">
                    <mxGeometry relative="1" as="geometry">
                        <mxPoint x="55" y="80" as="sourcePoint"/>
                        <Array as="points">
                            <mxPoint x="85" y="80"/>
                        </Array>
                    </mxGeometry>
                </mxCell>
                <mxCell id="efERmn20gOlT6z2LHzhT-19" value="" style="html=1;points=[];perimeter=orthogonalPerimeter;" parent="efERmn20gOlT6z2LHzhT-2" vertex="1">
                    <mxGeometry x="50" y="180" width="10" height="40" as="geometry"/>
                </mxCell>
                <mxCell id="efERmn20gOlT6z2LHzhT-20" value="save &lt;br&gt;.kube&amp;nbsp;.yaml" style="edgeStyle=orthogonalEdgeStyle;html=1;align=left;spacingLeft=2;endArrow=block;rounded=0;entryX=1;entryY=0;" parent="efERmn20gOlT6z2LHzhT-2" target="efERmn20gOlT6z2LHzhT-19" edge="1">
                    <mxGeometry x="0.0133" relative="1" as="geometry">
                        <mxPoint x="55" y="160" as="sourcePoint"/>
                        <Array as="points">
                            <mxPoint x="85" y="160"/>
                        </Array>
                        <mxPoint as="offset"/>
                    </mxGeometry>
                </mxCell>
                <mxCell id="efERmn20gOlT6z2LHzhT-18" value="parsed result" style="html=1;verticalAlign=bottom;endArrow=block;entryX=0.024;entryY=0.151;entryDx=0;entryDy=0;entryPerimeter=0;" parent="efERmn20gOlT6z2LHzhT-2" target="efERmn20gOlT6z2LHzhT-23" edge="1">
                    <mxGeometry width="80" relative="1" as="geometry">
                        <mxPoint x="60" y="130" as="sourcePoint"/>
                        <mxPoint x="200" y="130" as="targetPoint"/>
                    </mxGeometry>
                </mxCell>
                <mxCell id="efERmn20gOlT6z2LHzhT-3" value="api-server" style="shape=umlLifeline;perimeter=lifelinePerimeter;whiteSpace=wrap;html=1;container=1;collapsible=0;recursiveResize=0;outlineConnect=0;" parent="1" vertex="1">
                    <mxGeometry x="320" y="80" width="100" height="480" as="geometry"/>
                </mxCell>
                <mxCell id="efERmn20gOlT6z2LHzhT-27" value="save condition" style="html=1;verticalAlign=bottom;endArrow=block;entryX=0.5;entryY=0.069;entryDx=0;entryDy=0;entryPerimeter=0;" parent="efERmn20gOlT6z2LHzhT-3" source="efERmn20gOlT6z2LHzhT-3" edge="1">
                    <mxGeometry width="80" relative="1" as="geometry">
                        <mxPoint x="110" y="170" as="sourcePoint"/>
                        <mxPoint x="199" y="150.01" as="targetPoint"/>
                    </mxGeometry>
                </mxCell>
                <mxCell id="efERmn20gOlT6z2LHzhT-23" value="" style="html=1;points=[];perimeter=orthogonalPerimeter;" parent="efERmn20gOlT6z2LHzhT-3" vertex="1">
                    <mxGeometry x="45" y="80" width="10" height="330" as="geometry"/>
                </mxCell>
                <mxCell id="efERmn20gOlT6z2LHzhT-33" value="send scenario name" style="html=1;verticalAlign=bottom;endArrow=block;" parent="efERmn20gOlT6z2LHzhT-3" edge="1">
                    <mxGeometry x="0.4152" width="80" relative="1" as="geometry">
                        <mxPoint x="61" y="196" as="sourcePoint"/>
                        <mxPoint x="365.5" y="196" as="targetPoint"/>
                        <mxPoint as="offset"/>
                    </mxGeometry>
                </mxCell>
                <mxCell id="efERmn20gOlT6z2LHzhT-32" value="" style="html=1;points=[];perimeter=orthogonalPerimeter;" parent="efERmn20gOlT6z2LHzhT-3" vertex="1">
                    <mxGeometry x="51" y="233" width="10" height="76" as="geometry"/>
                </mxCell>
                <mxCell id="efERmn20gOlT6z2LHzhT-31" value="" style="html=1;points=[];perimeter=orthogonalPerimeter;" parent="efERmn20gOlT6z2LHzhT-3" vertex="1">
                    <mxGeometry x="51" y="144" width="10" height="76" as="geometry"/>
                </mxCell>
                <mxCell id="efERmn20gOlT6z2LHzhT-4" value="gateway" style="shape=umlLifeline;perimeter=lifelinePerimeter;whiteSpace=wrap;html=1;container=1;collapsible=0;recursiveResize=0;outlineConnect=0;" parent="1" vertex="1">
                    <mxGeometry x="640" y="80" width="100" height="480" as="geometry"/>
                </mxCell>
                <mxCell id="efERmn20gOlT6z2LHzhT-36" value="" style="html=1;points=[];perimeter=orthogonalPerimeter;" parent="efERmn20gOlT6z2LHzhT-4" vertex="1">
                    <mxGeometry x="45.5" y="80" width="10" height="330" as="geometry"/>
                </mxCell>
                <mxCell id="efERmn20gOlT6z2LHzhT-34" value="" style="html=1;points=[];perimeter=orthogonalPerimeter;" parent="efERmn20gOlT6z2LHzhT-4" vertex="1">
                    <mxGeometry x="51" y="259" width="10" height="40" as="geometry"/>
                </mxCell>
                <mxCell id="efERmn20gOlT6z2LHzhT-35" value="make filter" style="edgeStyle=orthogonalEdgeStyle;html=1;align=left;spacingLeft=2;endArrow=block;rounded=0;entryX=1;entryY=0;" parent="efERmn20gOlT6z2LHzhT-4" target="efERmn20gOlT6z2LHzhT-34" edge="1">
                    <mxGeometry relative="1" as="geometry">
                        <mxPoint x="56" y="239" as="sourcePoint"/>
                        <Array as="points">
                            <mxPoint x="86" y="239"/>
                        </Array>
                    </mxGeometry>
                </mxCell>
                <mxCell id="efERmn20gOlT6z2LHzhT-39" value="send scenario name" style="html=1;verticalAlign=bottom;endArrow=block;" parent="efERmn20gOlT6z2LHzhT-4" edge="1">
                    <mxGeometry width="80" relative="1" as="geometry">
                        <mxPoint x="61" y="287" as="sourcePoint"/>
                        <mxPoint x="205" y="287" as="targetPoint"/>
                    </mxGeometry>
                </mxCell>
                <mxCell id="efERmn20gOlT6z2LHzhT-5" value="statemanager" style="shape=umlLifeline;perimeter=lifelinePerimeter;whiteSpace=wrap;html=1;container=1;collapsible=0;recursiveResize=0;outlineConnect=0;" parent="1" vertex="1">
                    <mxGeometry x="800" y="80" width="100" height="480" as="geometry"/>
                </mxCell>
                <mxCell id="efERmn20gOlT6z2LHzhT-38" value="" style="html=1;points=[];perimeter=orthogonalPerimeter;" parent="efERmn20gOlT6z2LHzhT-5" vertex="1">
                    <mxGeometry x="45" y="80" width="10" height="330" as="geometry"/>
                </mxCell>
                <mxCell id="KqAunuYAAnqcdZcSRWbQ-1" value="" style="html=1;points=[];perimeter=orthogonalPerimeter;" parent="efERmn20gOlT6z2LHzhT-5" vertex="1">
                    <mxGeometry x="50" y="350" width="10" height="40" as="geometry"/>
                </mxCell>
                <mxCell id="KqAunuYAAnqcdZcSRWbQ-2" value="make systemd service file link" style="edgeStyle=orthogonalEdgeStyle;html=1;align=left;spacingLeft=2;endArrow=block;rounded=0;entryX=1;entryY=0;" parent="efERmn20gOlT6z2LHzhT-5" target="KqAunuYAAnqcdZcSRWbQ-1" edge="1">
                    <mxGeometry relative="1" as="geometry">
                        <mxPoint x="55" y="330" as="sourcePoint"/>
                        <Array as="points">
                            <mxPoint x="85" y="330"/>
                        </Array>
                    </mxGeometry>
                </mxCell>
                <mxCell id="efERmn20gOlT6z2LHzhT-21" value="scenario file path" style="html=1;verticalAlign=bottom;startArrow=circle;startFill=1;endArrow=open;startSize=6;endSize=8;" parent="1" edge="1">
                    <mxGeometry width="80" relative="1" as="geometry">
                        <mxPoint x="66" y="150" as="sourcePoint"/>
                        <mxPoint x="205.5" y="150" as="targetPoint"/>
                    </mxGeometry>
                </mxCell>
                <mxCell id="efERmn20gOlT6z2LHzhT-22" value="etcd" style="shape=umlLifeline;perimeter=lifelinePerimeter;whiteSpace=wrap;html=1;container=1;collapsible=0;recursiveResize=0;outlineConnect=0;" parent="1" vertex="1">
                    <mxGeometry x="480" y="80" width="100" height="480" as="geometry"/>
                </mxCell>
                <mxCell id="efERmn20gOlT6z2LHzhT-26" value="" style="html=1;points=[];perimeter=orthogonalPerimeter;" parent="efERmn20gOlT6z2LHzhT-22" vertex="1">
                    <mxGeometry x="45" y="80" width="10" height="330" as="geometry"/>
                </mxCell>
                <mxCell id="efERmn20gOlT6z2LHzhT-29" value="" style="html=1;points=[];perimeter=orthogonalPerimeter;" parent="efERmn20gOlT6z2LHzhT-22" vertex="1">
                    <mxGeometry x="39" y="150" width="10" height="70" as="geometry"/>
                </mxCell>
                <mxCell id="efERmn20gOlT6z2LHzhT-30" value="" style="html=1;points=[];perimeter=orthogonalPerimeter;" parent="efERmn20gOlT6z2LHzhT-22" vertex="1">
                    <mxGeometry x="50" y="240" width="10" height="90" as="geometry"/>
                </mxCell>
                <mxCell id="efERmn20gOlT6z2LHzhT-28" value="save action" style="html=1;verticalAlign=bottom;endArrow=block;" parent="1" edge="1">
                    <mxGeometry width="80" relative="1" as="geometry">
                        <mxPoint x="380" y="320" as="sourcePoint"/>
                        <mxPoint x="530" y="320" as="targetPoint"/>
                    </mxGeometry>
                </mxCell>
                <mxCell id="efERmn20gOlT6z2LHzhT-37" value="condition&lt;br&gt;satisfied" style="html=1;verticalAlign=bottom;startArrow=oval;startFill=1;endArrow=block;startSize=8;" parent="1" edge="1">
                    <mxGeometry width="60" relative="1" as="geometry">
                        <mxPoint x="600" y="354" as="sourcePoint"/>
                        <mxPoint x="690" y="354" as="targetPoint"/>
                    </mxGeometry>
                </mxCell>
                <mxCell id="efERmn20gOlT6z2LHzhT-41" value="get condition" style="html=1;verticalAlign=bottom;endArrow=open;dashed=1;endSize=8;horizontal=1;labelPosition=center;verticalLabelPosition=top;align=center;entryX=1.02;entryY=0.969;entryDx=0;entryDy=0;entryPerimeter=0;" parent="1" source="efERmn20gOlT6z2LHzhT-36" target="efERmn20gOlT6z2LHzhT-29" edge="1">
                    <mxGeometry x="0.1304" relative="1" as="geometry">
                        <mxPoint x="680" y="298" as="sourcePoint"/>
                        <mxPoint x="535" y="297" as="targetPoint"/>
                        <mxPoint as="offset"/>
                    </mxGeometry>
                </mxCell>
                <mxCell id="KqAunuYAAnqcdZcSRWbQ-3" value="" style="ellipse;html=1;shape=endState;fillColor=#000000;strokeColor=#ff0000;" parent="1" vertex="1">
                    <mxGeometry x="1010" y="446" width="30" height="30" as="geometry"/>
                </mxCell>
                <mxCell id="KqAunuYAAnqcdZcSRWbQ-4" value="call StartUnit via Bluechi" style="html=1;verticalAlign=bottom;endArrow=block;exitX=1;exitY=0.75;exitDx=0;exitDy=0;exitPerimeter=0;" parent="1" source="KqAunuYAAnqcdZcSRWbQ-1" edge="1">
                    <mxGeometry width="80" relative="1" as="geometry">
                        <mxPoint x="930" y="460" as="sourcePoint"/>
                        <mxPoint x="1010" y="460" as="targetPoint"/>
                    </mxGeometry>
                </mxCell>
            </root>
        </mxGraphModel>
    </diagram>
</mxfile>